<svg xmlns="http://www.w3.org/2000/svg" xmlns:xlink="http://www.w3.org/1999/xlink" preserveAspectRatio="xMidYMid" width="28.97" height="28.938" viewBox="0 0 28.97 28.938">
  <defs>
    <style>
      .cls-1 {
        fill: #4b4b4b;
        fill-rule: evenodd;
      }
    </style>
  </defs>
  <path d="M28.188,13.065 L13.097,28.158 C12.067,29.187 10.392,29.187 9.363,28.158 L0.773,19.567 C-0.257,18.537 -0.257,16.862 0.773,15.833 L15.865,0.740 C16.894,-0.289 18.569,-0.289 19.599,0.740 L28.189,9.331 C29.218,10.360 29.218,12.035 28.188,13.065 ZM2.017,18.322 L10.607,26.913 C10.706,27.011 10.823,27.073 10.946,27.115 L10.946,18.314 L2.012,18.314 C2.014,18.317 2.015,18.320 2.017,18.322 ZM16.586,2.508 L2.541,16.554 L16.202,16.554 C16.407,16.554 16.586,16.375 16.586,16.170 L16.586,2.508 ZM17.718,17.687 C17.313,18.091 16.775,18.314 16.202,18.314 L12.706,18.314 L12.706,26.059 L26.090,12.674 L18.346,12.674 L18.346,16.170 C18.346,16.743 18.123,17.282 17.718,17.687 ZM26.944,10.575 L18.354,1.985 C18.351,1.983 18.348,1.982 18.346,1.980 L18.346,10.914 L27.146,10.914 C27.104,10.791 27.042,10.674 26.944,10.575 ZM0.858,8.621 L4.508,8.621 C4.981,8.621 5.365,9.004 5.365,9.478 C5.365,9.952 4.981,10.336 4.508,10.336 L0.858,10.336 C0.385,10.336 0.001,9.952 0.001,9.478 C0.001,9.005 0.385,8.621 0.858,8.621 ZM0.858,5.353 L6.510,5.353 C6.984,5.353 7.368,5.737 7.368,6.211 C7.368,6.685 6.984,7.069 6.510,7.069 L0.858,7.069 C0.385,7.069 0.001,6.685 0.001,6.211 C0.001,5.737 0.385,5.353 0.858,5.353 ZM9.872,3.700 L0.858,3.700 C0.385,3.700 0.001,3.316 0.001,2.842 C0.001,2.368 0.385,1.984 0.858,1.984 L9.872,1.984 C10.346,1.984 10.730,2.368 10.730,2.842 C10.730,3.316 10.346,3.700 9.872,3.700 ZM0.858,26.105 L4.508,26.105 C4.981,26.105 5.365,26.489 5.365,26.963 C5.365,27.437 4.981,27.821 4.508,27.821 L0.858,27.821 C0.385,27.821 0.001,27.437 0.001,26.963 C0.001,26.489 0.385,26.105 0.858,26.105 Z" class="cls-1"/>
</svg>
