<svg xmlns="http://www.w3.org/2000/svg" width="807" height="807" viewBox="0 0 807 807">
  <defs>
    <style>
      .cls-1 {
        fill: #f3e2d5;
        fill-rule: evenodd;
      }
    </style>
  </defs>
  <path id="pat.svg" class="cls-1" d="M771.64,627.5a6.047,6.047,0,0,1-4.714-7.135l0.45-2.213a6.046,6.046,0,0,1,7.142-4.72l29.435,6.011a1.346,1.346,0,1,1-.537,2.637l-29.435-6.012a3.363,3.363,0,0,0-3.968,2.623l-0.451,2.212a3.362,3.362,0,0,0,2.616,3.968L807,631.975v2.744Zm-12.186-10.551-0.215,1.042a8.751,8.751,0,0,0,6.819,10.309l35.354,7.216a1.346,1.346,0,0,1-.269,2.664,1.237,1.237,0,0,1-.27-0.027l-35.353-7.216a11.446,11.446,0,0,1-8.917-13.491l0.215-1.035a11.449,11.449,0,0,1,13.491-8.918L807,614.981v2.75l-37.236-7.605A8.752,8.752,0,0,0,759.454,616.945ZM783.9,485.713a2.982,2.982,0,0,1-2.657-1.311,3.4,3.4,0,0,1,.061-3.423l2.306-4.775a9.749,9.749,0,0,1,6.356-4.842l12.239-2.239L800.268,458.5l-11.305,5.79a11.631,11.631,0,0,1-5.258,1.345c-2.6,0-4.634-1.056-5.575-2.885l-2.26-4.418c-1.978-3.847.538-14.177,6.288-20.734,2.757-3.14,8.534-6.059,12.353-7.989l0.781-.39c3.073-1.56,6.987-3.551,11.708-5.965v3.02q-6.274,3.207-10.5,5.346l-0.779.39c-3.632,1.836-9.133,4.613-11.541,7.357-5.474,6.248-7.135,15.367-5.925,17.74l2.267,4.419a3.42,3.42,0,0,0,3.181,1.419,9.136,9.136,0,0,0,4.035-1.049L807,452.028v3.019l-4.237,2.172,2.085,11.426,2.152-.39v2.724l-16.557,3.026a7.12,7.12,0,0,0-4.411,3.369l-2.3,4.775a1.807,1.807,0,0,0-.216.739,0.269,0.269,0,0,0,.007.088,1.365,1.365,0,0,0,.377.047,2.338,2.338,0,0,0,.464-0.047L807,478.84v2.737l-22.152,4.049A5.281,5.281,0,0,1,783.9,485.713ZM804.041,239.1c-0.908,4.754-3.5,8.439-7.115,10.114a2.419,2.419,0,0,1-1,.209,2.685,2.685,0,0,1-1.83-.707,31.554,31.554,0,0,1-7.854-13.073l-15.3,4.277a1.138,1.138,0,0,1-.363.054,1.346,1.346,0,0,1-.363-2.643l15.3-4.277a31.656,31.656,0,0,1-.053-15.4,2.665,2.665,0,0,1,2.166-1.883c3.96-.431,8.083,1.385,11.317,4.99a4.33,4.33,0,0,1,.552.807l0.4-.074c1.729-.33,4.365-0.834,7.109-1.352v2.737c-2.569.484-4.983,0.941-6.611,1.258l-1.244.235a1.069,1.069,0,0,0-.363.182c-0.726,1.338-.767,3.739-0.094,6.153,0.767,2.757,2.185,4.607,3.268,5.232a0.953,0.953,0,0,0,.417-0.034c0.928-.343,2.616-0.975,4.627-1.721v2.871c-1.137.424-2.138,0.8-2.9,1.083A4.5,4.5,0,0,1,804.041,239.1Zm-3.342-.781c-1.958-1.089-3.72-3.725-4.6-6.893-0.888-3.187-.753-6.267.363-8.238a2.391,2.391,0,0,1,.5-0.6c-0.007-.007-0.014-0.02-0.021-0.027-2.615-2.912-5.857-4.412-8.9-4.122A31.027,31.027,0,0,0,795.9,246.72c2.757-1.325,4.761-4.284,5.494-8.131a0.023,0.023,0,0,0,.007-0.02A2.46,2.46,0,0,1,800.7,238.32ZM785.776,13.659l-0.115-1.224a3.038,3.038,0,0,1,1.11-2.858,3.034,3.034,0,0,1,3.06-.155L807,17.041v2.946l-18.259-8.1a0.294,0.294,0,0,0-.4.3l0.114,1.217a4.986,4.986,0,0,0,2.024,3.215l16.524,10v3.147L789.085,18.917A7.575,7.575,0,0,1,785.776,13.659ZM709.383,186.4a57.3,57.3,0,1,1,57.3-57.3A57.364,57.364,0,0,1,709.383,186.4Zm0-111.908a54.609,54.609,0,1,0,54.609,54.61A54.671,54.671,0,0,0,709.383,74.492Zm40.4,53.265h10.8a1.345,1.345,0,1,1,0,2.69h-10.8A1.345,1.345,0,0,1,749.787,127.756Zm0.753,23.554,3.861,2.23a1.345,1.345,0,0,1-1.345,2.33l-3.861-2.231A1.345,1.345,0,0,1,750.54,151.31Zm2.7-10.458a1.343,1.343,0,0,1,1.647-.951l4.307,1.154a1.346,1.346,0,0,1-.348,2.645,1.307,1.307,0,0,1-.348-0.047L754.19,142.5A1.343,1.343,0,0,1,753.239,140.852Zm5.954-23.7-4.307,1.154a1.361,1.361,0,0,1-.349.046,1.345,1.345,0,0,1-.347-2.645l4.307-1.153A1.345,1.345,0,1,1,759.193,117.147ZM754.4,104.662l-3.861,2.231a1.345,1.345,0,0,1-1.345-2.33l3.861-2.23A1.345,1.345,0,0,1,754.4,104.662Zm-8.811,61.992a1.344,1.344,0,0,1-.951-0.394l-5.661-5.659a1.345,1.345,0,0,1,1.9-1.9l5.661,5.659A1.346,1.346,0,0,1,745.59,166.654ZM740.88,99.5a1.345,1.345,0,0,1-1.9-1.9l5.661-5.661a1.345,1.345,0,1,1,1.9,1.9Zm-5.222,75.108a1.344,1.344,0,0,1-1.838-.492l-2.229-3.861a1.345,1.345,0,0,1,2.33-1.345l2.229,3.861A1.345,1.345,0,0,1,735.658,174.611ZM733.921,89.29a1.345,1.345,0,0,1-2.33-1.344l2.229-3.862a1.345,1.345,0,1,1,2.33,1.344Zm-10.935,90.571a1.363,1.363,0,0,1-.349.047,1.347,1.347,0,0,1-1.3-1l-1.157-4.307a1.345,1.345,0,0,1,2.6-.7l1.157,4.307A1.344,1.344,0,0,1,722.986,179.861ZM722.779,84.3a1.345,1.345,0,0,1-2.6-.7l1.157-4.309a1.345,1.345,0,1,1,2.6.7Zm-7.624,46.213h-4.388l0.012,4.184a1.346,1.346,0,0,1-1.341,1.349h0a1.345,1.345,0,0,1-1.345-1.341l-0.012-4.191-15.9,0h0a1.345,1.345,0,0,1,0-2.69l15.892,0L707.984,99.9a1.346,1.346,0,0,1,1.341-1.349h0a1.345,1.345,0,0,1,1.345,1.341l0.084,27.924h4.4A1.345,1.345,0,1,1,715.155,130.51Zm-5.773-40.468a1.345,1.345,0,0,1-1.345-1.345v-10.8a1.345,1.345,0,1,1,2.69,0V88.7A1.345,1.345,0,0,1,709.382,90.042ZM697.6,85.108a1.343,1.343,0,0,1-1.647-.951l-1.118-4.17a1.345,1.345,0,1,1,2.6-.7l1.118,4.17A1.345,1.345,0,0,1,697.6,85.108ZM684.943,174.12a1.345,1.345,0,1,1-2.329-1.345l2.16-3.74a1.345,1.345,0,1,1,2.329,1.346Zm1.669-84.461a1.345,1.345,0,0,1-1.838-.492l-2.16-3.739a1.345,1.345,0,1,1,2.329-1.346l2.16,3.739A1.345,1.345,0,0,1,686.612,89.659Zm-12.487,76.6a1.345,1.345,0,0,1-1.9-1.9l5.659-5.659a1.345,1.345,0,1,1,1.9,1.9ZM678.834,99.9a1.342,1.342,0,0,1-.951-0.394l-5.661-5.661a1.345,1.345,0,1,1,1.9-1.9l5.661,5.661A1.345,1.345,0,0,1,678.834,99.9Zm17.114,74.147a1.345,1.345,0,0,1,2.6.7l-1.118,4.172a1.345,1.345,0,1,1-2.6-.7Zm13.434-5.884a1.345,1.345,0,0,1,1.345,1.345v10.8a1.345,1.345,0,1,1-2.69,0v-10.8A1.345,1.345,0,0,1,709.382,168.16Zm-40.4-37.714h-10.8a1.345,1.345,0,0,1,0-2.69h10.8A1.345,1.345,0,1,1,668.979,130.446ZM668.776,107a1.348,1.348,0,0,1-.672-0.18l-3.74-2.159a1.345,1.345,0,1,1,1.345-2.33l3.74,2.159A1.345,1.345,0,0,1,668.776,107Zm-3.385,10.311a1.346,1.346,0,0,1-1.3,1,1.313,1.313,0,0,1-.348-0.047l-4.171-1.116a1.345,1.345,0,1,1,.7-2.6l4.17,1.117A1.346,1.346,0,0,1,665.391,117.313Zm-5.818,23.742,4.171-1.117a1.345,1.345,0,0,1,.7,2.6l-4.17,1.116a1.32,1.32,0,0,1-.349.047A1.346,1.346,0,0,1,659.573,141.055Zm4.791,12.485,3.74-2.16a1.345,1.345,0,1,1,1.345,2.33l-3.74,2.16A1.345,1.345,0,1,1,664.364,153.54ZM642.291,23.6a2.752,2.752,0,0,1-2.3,1.238,2.8,2.8,0,0,1-1.526-.457L601.679,0h4.869l33.4,22.132,0.04,0.014a0.081,0.081,0,0,0,.061-0.034l8.547-12.9a0.073,0.073,0,0,0-.02-0.1L634.827,0h4.862l10.376,6.873a2.761,2.761,0,0,1,.774,3.827Zm-49.929,86.839-1.64.854a8.746,8.746,0,0,1-11.792-3.716L558.641,68.616a6.061,6.061,0,0,1,2.572-8.164l2-1.043a6.062,6.062,0,0,1,8.164,2.573l13.879,26.649a1.345,1.345,0,0,1-2.386,1.242L568.993,63.225a3.366,3.366,0,0,0-4.536-1.429l-2,1.042a3.368,3.368,0,0,0-1.429,4.536l20.288,38.958a6.061,6.061,0,0,0,8.165,2.573l1.64-.854a6.06,6.06,0,0,0,2.572-8.164L570.95,56.217A8.741,8.741,0,0,0,559.158,52.5l-0.94.489A8.752,8.752,0,0,0,554.5,64.781l16.666,32a1.346,1.346,0,0,1-2.387,1.243l-16.665-32A11.445,11.445,0,0,1,556.976,50.6l0.94-.489a11.432,11.432,0,0,1,15.42,4.86l22.742,43.67A8.753,8.753,0,0,1,592.362,110.437Zm-160.1,40.553a3.973,3.973,0,0,1-3.342,1.795,3.921,3.921,0,0,1-2.192-.659l-6.994-4.6a3.99,3.99,0,0,1-1.143-5.534l1.547-2.347c-2.536-6.853,1.257-20.027,9.623-33.215l-8.507-5.6-1.89,2.871a3.947,3.947,0,0,1-2.535,1.715,3.7,3.7,0,0,1-.814.088,4.029,4.029,0,0,1-2.192-.659l-2.872-1.9A57.241,57.241,0,0,1,315.86,40.337l-1.782-1.17a4.007,4.007,0,0,1-1.137-5.541l1.535-2.333-1.885-1.245a4.58,4.58,0,0,1-2.058-2.973,6.482,6.482,0,0,1,1.231-4.573A92.02,92.02,0,0,1,334.293,0h4.768a89.317,89.317,0,0,0-25.1,24.055,3.794,3.794,0,0,0-.774,2.535,1.9,1.9,0,0,0,.9,1.217l1.871,1.237,1.842-2.8a4,4,0,0,1,5.541-1.136l2.381,1.567A57.24,57.24,0,0,1,419.6,88.494l3.483,2.3a3.992,3.992,0,0,1,1.136,5.535l-1.486,2.253,2.663,1.755c1.224-1.984,2.011-3.3,2.052-3.369C447.912,62.307,442.3,20.545,415.04,0h4.318c26.012,22.024,30.881,63.659,10.4,98.34-0.04.074-.854,1.439-2.118,3.476l3.591,2.368c8.77-12.993,19.684-22.052,27.027-22.435l1.353-2.058a4,4,0,0,1,5.541-1.143l6.987,4.607a4,4,0,0,1,1.143,5.535Zm-96.207-39.22c3.215-1.574,15.918-6.853,29.429.437,5.205,2.8,21.735-2.475,25.763-9.463,1.251-2.172,1.089-2.972.955-3.214-0.5-.935-3.544-1.13-6.227-1.3a46.019,46.019,0,0,1-6.712-.773c-8.877-1.91-11.977-6.873-14.465-10.854-2.724-4.371-4.526-7.256-12.785-5.333-0.309.074-.645,0.155-1,0.242-5.44,1.332-15.562,3.806-22.455-8.225-1.641-2.865-3.235-4.324-4.5-4.1-3.316.558-6.645,10.558-8.023,17.707A54.141,54.141,0,0,0,336.055,111.77Zm-14.2-84.413a1.289,1.289,0,0,0-.989-0.188,1.312,1.312,0,0,0-.827.558L315.187,35.1a1.316,1.316,0,0,0,.37,1.816l1.608,1.056c0.551-.948,1.116-1.883,1.721-2.8a58.569,58.569,0,0,1,4.977-6.489ZM366.748,12.1a54.581,54.581,0,0,0-51.769,37.176c1.244,0.612,6.806.081,12.7-1.607,3.86-1.1,6.375-.982,7.922.39,2.111,1.876,1.573,5.239,1,8.8-0.41,2.589-.841,5.259-0.148,6.947,0.713,1.749,1.869,2.508,3.524,2.327,4.472-.477,10.552-7.2,12.125-16.066a5.793,5.793,0,0,1,3.316-4.512c4.552-2.064,12.017,1.379,14.277,2.744,5.1,3.094,10.424,1.251,13.988-.841,2.811-1.648,4.095-2.973,4.438-4.58,0.511-2.394-1.069-6.059-4.97-11.533-6.281-8.8-7.3-15.77-7.444-18.494A54.446,54.446,0,0,0,366.748,12.1Zm29.946,8.991a54.523,54.523,0,0,0-18.251-7.72c0.269,2.737,1.493,8.837,6.893,16.409,4.492,6.3,6.106,10.384,5.407,13.652-0.646,3.019-3.248,4.9-5.71,6.341-5.931,3.477-11.883,3.773-16.738.827-2.61-1.587-8.743-3.974-11.776-2.6a3.077,3.077,0,0,0-1.775,2.529c-1.809,10.195-8.951,17.68-14.486,18.272a6.875,6.875,0,0,1-.733.04,5.89,5.89,0,0,1-5.568-4.022c-0.982-2.387-.491-5.441-0.014-8.393,0.411-2.562.875-5.468-.134-6.362-0.431-.384-1.708-0.868-5.387.188-1.883.538-10.4,2.845-14.237,1.56a54.332,54.332,0,0,0-.921,25.838c0.309,1.486.686,2.945,1.1,4.385,1.506-5.9,4.526-14.708,9.233-15.515,2.542-.43,4.99,1.392,7.3,5.421,5.884,10.276,14.069,8.278,19.482,6.947,0.357-.087.7-0.168,1.029-0.242,10.121-2.361,12.818,1.95,15.676,6.523,2.448,3.921,4.983,7.983,12.744,9.65a43.154,43.154,0,0,0,6.322.719c3.873,0.249,7.216.464,8.426,2.717,1.016,1.9-.081,4.237-1,5.83-3.611,6.275-15.669,11.594-23.954,11.594a11.553,11.553,0,0,1-5.414-1.109c-10.7-5.777-21.063-2.818-25.421-1.063A54.546,54.546,0,0,0,396.694,21.09Zm25.468,72.778a1.277,1.277,0,0,0-.558-0.827L418.5,90.989a57.976,57.976,0,0,1-4,7.142c-0.605.921-1.238,1.816-1.89,2.7l2.69,1.769a1.323,1.323,0,0,0,.989.2,1.3,1.3,0,0,0,.827-0.565l4.855-7.378A1.266,1.266,0,0,0,422.162,93.868Zm10.726,12.676c-7.438,11.305-11.607,23.3-10.739,30.047l34.1-51.789C449.667,86.665,440.346,95.226,432.888,106.544ZM470.669,85.4l-6.993-4.607a1.311,1.311,0,0,0-1.816.377l-41.023,62.3a1.306,1.306,0,0,0,.377,1.809l6.987,4.6a1.339,1.339,0,0,0,1.815-.37l41.023-62.3A1.31,1.31,0,0,0,470.669,85.4ZM408,72.1c-0.591,0-1.21-.02-1.879-0.041-0.719-.023-1.484-0.048-2.278-0.048-3.892,0-8.243.586-11,4.931a7.931,7.931,0,0,1-7,3.56c-4.892,0-10.123-3.152-12.166-7.332a8.93,8.93,0,0,1,1.268-9.786c3.026-3.889,11.594-9.643,20.372-9.643,6.238,0,11.363,2.965,14.82,8.576,2.607,4.233,3.276,6.5,2.384,8.1C411.579,72.1,409.254,72.1,408,72.1Zm-0.157-8.372c-2.983-4.842-7.2-7.3-12.529-7.3-7.538,0-15.441,5-18.249,8.6-1.782,2.29-2.11,4.63-.975,6.952,1.6,3.266,5.879,5.824,9.75,5.824a5.342,5.342,0,0,0,4.731-2.312c3.476-5.477,8.919-6.179,13.272-6.179,0.823,0,1.618.025,2.365,0.049,0.634,0.02,1.232.04,1.783,0.04,1.824,0,2.136-.255,2.18-0.307C410.186,69.076,410.6,68.209,407.841,63.733Zm14.1,289.3a1.8,1.8,0,0,1-1.107.368,3.521,3.521,0,0,1-2.02-.8l-16.259-11.772a3.886,3.886,0,0,1-1.754.422,3.936,3.936,0,0,1-3.145-1.562l-14.118-18.7-0.216.163a3.93,3.93,0,0,1-5.5-.768l-39.206-51.92a3.929,3.929,0,0,1,.769-5.5l0.215-.163-23.26-30.8a12.206,12.206,0,0,0-.465,15.313l38.946,51.576a12.2,12.2,0,0,0,6.1,4.3,1.47,1.47,0,0,1,1.046,1.65,1.257,1.257,0,0,1-1.565,1,14.879,14.879,0,0,1-7.732-5.333l-38.946-51.576a14.888,14.888,0,0,1,.965-19.114l-1.155-1.53a3.934,3.934,0,0,1,.769-5.5l1.247-.942-3.473-4.6a3.931,3.931,0,0,1,.768-5.5l3.1-2.337a3.928,3.928,0,0,1,5.5.769l3.474,4.6,1.247-.942a3.93,3.93,0,0,1,5.5.768L357.729,249.1l0.216-.164a3.931,3.931,0,0,1,5.5.769l39.2,51.92a3.935,3.935,0,0,1-.768,5.5l-0.216.162,14.119,18.7a3.913,3.913,0,0,1-.276,5.051l6.864,18.864C423.037,351.716,422.5,352.6,421.939,353.03ZM319.294,211.78a1.241,1.241,0,0,0-1.736-.242l-3.095,2.337a1.239,1.239,0,0,0-.242,1.737l3.473,4.6,5.074-3.832Zm10.226,4.426a1.239,1.239,0,0,0-1.737-.242l-11.863,8.958a1.241,1.241,0,0,0-.242,1.736l26.062,34.515,13.842-10.453Zm70.988,87.04-39.2-51.92a1.241,1.241,0,0,0-1.737-.243L341,265.1a1.238,1.238,0,0,0-.243,1.737l39.205,51.92A1.267,1.267,0,0,0,381.7,319l18.567-14.02A1.239,1.239,0,0,0,400.508,303.246Zm13.135,24.365-14.119-18.7-13.842,10.452,14.119,18.7a1.239,1.239,0,0,0,1.737.242l11.862-8.957A1.239,1.239,0,0,0,413.643,327.611Zm-0.352,5.19-8.435,6.37,5.637,4.08,5.178-3.91Zm5.934,16.307-2.592-7.123-3.861,2.916,6.138,4.445C419.211,349.563,419.352,349.457,419.225,349.108Zm-107.243,105.9,81.179-38.348a5.392,5.392,0,0,1,2.315-.521,5.451,5.451,0,0,1,4.908,3.109l6.128,12.973,2.955-1.4a5.426,5.426,0,0,1,7.224,2.588l0.051,0.11a5.426,5.426,0,0,1-2.594,7.209l-2.956,1.4,9.262,19.607,2.955-1.4a5.434,5.434,0,0,1,7.223,2.59l0.043,0.089a5.435,5.435,0,0,1-2.584,7.23l-2.957,1.395,9.193,19.461,2.955-1.4a5.433,5.433,0,0,1,7.223,2.589l0.045,0.1a5.426,5.426,0,0,1-2.588,7.223l-2.955,1.4,2.6,5.5a5.427,5.427,0,0,1-2.589,7.224l-81.179,38.347a5.379,5.379,0,0,1-2.313.52,5.451,5.451,0,0,1-4.908-3.108l-41.22-87.26A5.431,5.431,0,0,1,311.982,455.009ZM413,438.3a2.735,2.735,0,0,0,1.306-3.64l-0.051-.111a2.737,2.737,0,0,0-3.637-1.292l-2.955,1.4,2.382,5.043Zm13.943,29.515a2.74,2.74,0,0,0,1.305-3.642l-0.043-.089a2.742,2.742,0,0,0-3.645-1.313l-2.955,1.4,2.383,5.043Zm13.872,29.366a2.736,2.736,0,0,0,1.305-3.641l-0.046-.1a2.74,2.74,0,0,0-3.641-1.305l-2.955,1.4,2.382,5.042ZM437.865,511.3a2.733,2.733,0,0,0,1.306-3.641l-6.128-12.972-3.984,1.883a6.359,6.359,0,0,1-6.185,7.791,6.385,6.385,0,0,1-5.749-3.643,6.356,6.356,0,0,1,5.743-9.068,6.376,6.376,0,0,1,5.027,2.494l4-1.89L419.17,465.317l-4,1.891a6.353,6.353,0,0,1-6.2,7.71,6.384,6.384,0,0,1-5.749-3.643,6.358,6.358,0,0,1,5.743-9.069,6.376,6.376,0,0,1,5.077,2.56l3.983-1.881L405.229,435.8l-3.986,1.882a6.418,6.418,0,1,1-1.162-2.426l4-1.889L397.952,420.4a2.75,2.75,0,0,0-2.476-1.569,2.707,2.707,0,0,0-1.166.264l-16.221,7.662,43.555,92.205Zm-14.354-15.086,1.856-.876a3.669,3.669,0,0,0-2.5-1,3.665,3.665,0,0,0-3.311,5.229,3.684,3.684,0,0,0,3.317,2.1,3.655,3.655,0,0,0,3.649-3.9l-1.862.88A1.346,1.346,0,0,1,423.511,496.212Zm-13.872-29.368,1.884-.89a3.678,3.678,0,0,0-2.562-1.058,3.665,3.665,0,0,0-3.31,5.231,3.683,3.683,0,0,0,3.316,2.1,3.668,3.668,0,0,0,3.658-3.819l-1.837.868A1.345,1.345,0,0,1,409.639,466.844ZM395.7,437.331l1.856-.877a3.674,3.674,0,0,0-2.5-1,3.665,3.665,0,0,0-3.311,5.229,3.682,3.682,0,0,0,3.316,2.1,3.613,3.613,0,0,0,1.562-.353,3.667,3.667,0,0,0,2.088-3.55l-1.862.879A1.345,1.345,0,1,1,395.7,437.331Zm-83.871,23.75,41.219,87.259a2.749,2.749,0,0,0,2.476,1.568,2.713,2.713,0,0,0,1.165-.263l62.524-29.535-43.555-92.205-62.525,29.536A2.737,2.737,0,0,0,311.827,461.081Zm11.89,1.238,46.511-21.971a4.711,4.711,0,0,1,2.025-.456,4.77,4.77,0,0,1,4.293,2.72l31.872,67.471a4.752,4.752,0,0,1-2.265,6.317l-46.511,21.97a4.711,4.711,0,0,1-2.025.456,4.767,4.767,0,0,1-4.292-2.72l-31.872-67.47A4.745,4.745,0,0,1,323.717,462.319Zm12.457-2.91,5.805,12.289,10.731-5.07-5.8-12.288Zm27.071,23.222,5.814,12.307,10.732-5.069-5.814-12.307Zm9.583-7.5-5.8-12.287-10.732,5.07,5.8,12.286Zm-2.62,22.242,5.8,12.287,10.731-5.07-5.8-12.286Zm-2.433,1.149-10.732,5.07,5.805,12.286,10.731-5.069Zm-1.149-2.432-5.814-12.308-10.731,5.07,5.813,12.307Zm-6.963-14.74-5.8-12.287-10.731,5.069,5.8,12.287Zm-10.325-28.157,5.8,12.288,10.732-5.069-5.805-12.289Zm24.776-9.43a2.068,2.068,0,0,0-1.861-1.179,2.029,2.029,0,0,0-.876.2l-8.874,4.192,5.8,12.287,10.733-5.07Zm6.075,12.862-10.733,5.07,5.805,12.287,10.732-5.07Zm6.953,14.72-10.732,5.069,5.813,12.308,10.733-5.07Zm6.963,14.74-10.733,5.069,5.8,12.287,10.733-5.07ZM405,513.967a2.056,2.056,0,0,0,.981-2.735l-4.927-10.43-10.733,5.07,5.8,12.287ZM393.7,519.309l-5.8-12.288-10.732,5.069,5.8,12.288Zm-13.165,6.218-5.8-12.287L364,518.309l5.8,12.288Zm-24.774,9.43a2.1,2.1,0,0,0,2.735.981l8.875-4.193-5.8-12.287-10.733,5.07ZM349.682,522.1l10.733-5.07-5.8-12.288-10.733,5.07Zm-6.953-14.72,10.733-5.07L347.648,490l-10.733,5.07Zm-6.963-14.74,10.733-5.07-5.8-12.286-10.733,5.07Zm-11.88-25.149,4.927,10.43,10.733-5.07-5.8-12.288-8.876,4.192A2.053,2.053,0,0,0,323.886,467.487Zm-13.2,250.444L285.264,753.75a6.061,6.061,0,0,1-8.439,1.433l-1.841-1.307a6.052,6.052,0,0,1-1.432-8.439l17.39-24.5a1.345,1.345,0,0,1,2.194,1.557l-17.391,24.5a3.364,3.364,0,0,0,.8,4.688l1.841,1.307a3.367,3.367,0,0,0,4.689-.8L308.5,716.374a6.062,6.062,0,0,0-1.433-8.44l-1.508-1.071a6.061,6.061,0,0,0-8.439,1.432l-28.5,40.154a8.741,8.741,0,0,0,2.069,12.188l0.864,0.615a8.755,8.755,0,0,0,12.189-2.07l20.885-29.424a1.344,1.344,0,1,1,2.193,1.556l-20.885,29.425a11.444,11.444,0,0,1-15.939,2.7l-0.865-.614a11.432,11.432,0,0,1-2.7-15.939l28.5-40.152a8.753,8.753,0,0,1,12.19-2.069l1.508,1.071A8.753,8.753,0,0,1,310.688,717.931Zm-27.232-347.25a8.75,8.75,0,0,1-10.2,6.988L230.078,369.6a6.06,6.06,0,0,1-4.838-7.061l0.415-2.219a6.05,6.05,0,0,1,7.061-4.838L262.251,361a1.345,1.345,0,0,1-.493,2.644l-29.536-5.518a3.364,3.364,0,0,0-3.923,2.688l-0.415,2.219a3.366,3.366,0,0,0,2.689,3.923l43.177,8.067a6.061,6.061,0,0,0,7.062-4.839l0.34-1.818a6.061,6.061,0,0,0-4.839-7.061l-48.4-9.042a8.74,8.74,0,0,0-10.2,6.988l-0.195,1.041a8.752,8.752,0,0,0,6.988,10.2l35.469,6.627a1.346,1.346,0,0,1-.246,2.668,1.4,1.4,0,0,1-.248-0.023l-35.469-6.628a11.444,11.444,0,0,1-9.138-13.337l0.195-1.042a11.431,11.431,0,0,1,13.337-9.137l48.4,9.042a8.754,8.754,0,0,1,6.989,10.2ZM264.975,116.168a3.615,3.615,0,0,1-2.319.757,10.615,10.615,0,0,1-5.815-2.459c-3.206,3.018-9.579,9.039-12.219,11.534a4.456,4.456,0,0,1,.323.905c1.021,4.736.074,9.144-2.6,12.094a2.645,2.645,0,0,1-1.929.805,2.44,2.44,0,0,1-.867-0.153,31.59,31.59,0,0,1-12.353-8.96L214.8,140.6a1.345,1.345,0,1,1-1.679-2.1l12.4-9.912a31.645,31.645,0,0,1-6.057-14.16,2.664,2.664,0,0,1,1.259-2.578c3.472-1.946,7.979-1.884,12.368.169a4.559,4.559,0,0,1,.825.525c3.031-2.026,10.251-6.854,13.955-9.337-1.539-3.493-1.832-6.723.162-8.312a3.623,3.623,0,0,1,2.321-.757c3.019,0,7.329,2.962,10.981,7.545a25.785,25.785,0,0,1,4.526,8.1C266.76,112.731,266.446,115,264.975,116.168Zm-33.222-.944a2.5,2.5,0,0,1,.219-0.75,0.183,0.183,0,0,0-.026-0.016c-3.546-1.659-7.114-1.772-9.809-.315a31.024,31.024,0,0,0,18.293,22.964c2.024-2.3,2.711-5.8,1.886-9.634,0-.006-0.006-0.016-0.007-0.022a2.675,2.675,0,0,1-.517.057,2.2,2.2,0,0,1-.23-0.011c-2.227-.234-4.881-1.975-6.926-4.543C232.572,120.363,231.5,117.473,231.753,115.224Zm2.989,0-0.059.04a1.039,1.039,0,0,0-.263.31c-0.148,1.511.758,3.739,2.32,5.7,1.782,2.237,3.81,3.383,5.054,3.538a1.058,1.058,0,0,0,.37-0.194c2.059-1.946,9.033-8.536,12.6-11.893a31.376,31.376,0,0,1-5.658-7.109C245.01,108.364,237.161,113.611,234.742,115.228Zm28.544-4.652a23.074,23.074,0,0,0-4.058-7.214c-3.416-4.287-7.052-6.531-8.877-6.531a1.028,1.028,0,0,0-.645.171c-1.084.864-.013,5.574,4.073,10.7,3.416,4.288,7.052,6.531,8.877,6.531a1.02,1.02,0,0,0,.643-0.171C263.722,113.728,263.881,112.519,263.286,110.576ZM149.447,547.994a7.732,7.732,0,0,1-2.64,1.641l-20.741,6.946a3.283,3.283,0,0,1-1.036.181,2.124,2.124,0,0,1-1.776-.871,2.5,2.5,0,0,1-.185-2.367l7.221-20.247a8.213,8.213,0,0,1,1.637-2.6l56.5-57.138a9.855,9.855,0,0,1,13.942-.078l3.5,3.454a9.87,9.87,0,0,1,.079,13.943Zm-23.4,5.2c-0.125.35,0.06,0.538,0.412,0.42l3.984-1.335L127.43,549.3Zm2.384-6.687,4.87,4.816,12.166-4.075L132.673,534.6Zm5.709-14.24L147.828,545.8l42.227-42.71-13.691-13.537Zm44.12-44.623,13.69,13.537,4.694-4.747L182.948,482.9Zm25.712-8.819-3.495-3.454a7.166,7.166,0,0,0-10.138.056l-5.5,5.558,13.691,13.536,5.5-5.557A7.178,7.178,0,0,0,203.968,478.825Zm-18.907-191.5L90.15,317.882a5.172,5.172,0,0,1-1.568.276,2.318,2.318,0,0,1-2.16-1.129c-0.347-.613-0.557-1.685.418-3.313L156.621,197.16a3.356,3.356,0,0,1,2.829-1.965c0.608,0,2.1.257,2.853,2.63l26.215,82.8A5.355,5.355,0,0,1,185.061,287.327Zm0.892-5.888-26.215-82.8a0.434,0.434,0,0,0-.809-0.094L89.148,315.1a0.152,0.152,0,0,0,.178.224l6.541-2.105L95.1,310.892a1.345,1.345,0,0,1,2.557-.838l0.765,2.337,5.116-1.647-0.774-2.362a1.345,1.345,0,1,1,2.557-.837l0.778,2.375,5.115-1.647-0.786-2.4a1.345,1.345,0,0,1,2.557-.838l0.79,2.414,5.106-1.644-0.8-2.44a1.345,1.345,0,0,1,2.557-.837l0.8,2.452,4.636-1.492-2.292-7a1.345,1.345,0,0,1,2.557-.838l2.3,7.012,5.1-1.643-0.823-2.514a1.345,1.345,0,1,1,2.557-.837l0.827,2.527,5.116-1.647L140.59,296a1.345,1.345,0,1,1,2.556-.837l0.84,2.564,5.115-1.647-0.848-2.591a1.345,1.345,0,0,1,2.556-.836l0.853,2.6,5.106-1.644-0.861-2.627a1.345,1.345,0,1,1,2.556-.838l0.866,2.641,4.835-1.557-2.355-7.19a1.345,1.345,0,0,1,2.557-.837l2.359,7.2,5.1-1.643-0.885-2.705a1.345,1.345,0,1,1,2.556-.837l0.89,2.717,5.117-1.647-0.9-2.743a1.345,1.345,0,0,1,2.557-.837l0.9,2.756,2.17-.7A2.658,2.658,0,0,0,185.953,281.439ZM167.317,268.3h0a4.3,4.3,0,0,1-2.166-.7L140.75,253a5.325,5.325,0,0,1-1.835-7.3l13-21.734a3.336,3.336,0,0,1,2.807-1.96c0.608,0,2.1.259,2.819,2.663l11.861,39.62a3.388,3.388,0,0,1-.249,3.129A2.226,2.226,0,0,1,167.317,268.3Zm-12.352-42.864a0.4,0.4,0,0,0-.741-0.093l-13,21.734a2.635,2.635,0,0,0,.908,3.613l24.4,14.6a0.2,0.2,0,0,0,.295-0.231Zm7.313,53.329c-0.079.678-.522,1.914-2.609,2.579l-44.82,14.293a5.185,5.185,0,0,1-1.558.273,2.327,2.327,0,0,1-2.169-1.134c-0.348-.614-0.558-1.687.416-3.317l17.087-28.563a5.323,5.323,0,0,1,7.3-1.836l24.4,14.6C162.207,276.779,162.356,278.085,162.278,278.763Zm-3.332-.8-24.4-14.6a2.633,2.633,0,0,0-3.613.909l-17.087,28.563a0.159,0.159,0,0,0,.184.234l44.822-14.293A0.441,0.441,0,0,0,158.946,277.963ZM41.971,40.313a4.581,4.581,0,1,1-4.035,2.408A4.591,4.591,0,0,1,41.971,40.313Zm-0.9,6.246a1.932,1.932,0,0,0,2.56-.77,1.892,1.892,0,0,0-.768-2.56A1.868,1.868,0,0,0,41.971,43,1.891,1.891,0,0,0,41.072,46.559Zm90.3,41.31a10.441,10.441,0,0,1-5.219,1.372,11.888,11.888,0,0,1-5.7-1.513c-6.341-3.511-13.772-7.613-20.148-11.171L64.547,57.29A5.9,5.9,0,0,1,61.984,54.3l-2.663-.8a5.281,5.281,0,0,0-3.853.585l-1.809,1.224a4.746,4.746,0,0,1-.578,1.117l-2.939,4.075a5.31,5.31,0,0,0-.7,3.84l0.726,2.7a5.957,5.957,0,0,1,2.905,2.636l18.231,36.315c1.291,2.481,2.65,5.077,4.015,7.693,2.179,4.163,4.385,8.379,6.422,12.34,2.852,5.529,1.1,11.8-4.068,14.594a16,16,0,0,1-7.579,1.735c-4.291,0-19.025-1.695-28.454-23.43-3.941-9.079-1.836-15.232.2-21.184,2.307-6.752,4.486-13.12-1-24.331-0.4-.821-0.787-1.621-1.123-2.32a2.976,2.976,0,0,1,.04-2.872,2.84,2.84,0,0,1,.888-0.9L33.578,50.074,0,29.758V26.611L46.53,54.768a3.441,3.441,0,0,0,3.262-.081l4.163-2.824a7.97,7.97,0,0,1,6.14-.935l1.507,0.45,0.262-3.948L0,19.987V17.041L24.506,27.909,13.08,0h2.905L28.057,29.489,42.085,35.71,21.863,0h3.094L46.214,37.546,62.556,44.8a2.724,2.724,0,0,1,2.266-1.217,3.291,3.291,0,0,1,1.527.4l2.286,1.19a36.506,36.506,0,0,0,7.108,2.912,24.148,24.148,0,0,0,6.611.961A35.909,35.909,0,0,0,92.98,46.994a36.111,36.111,0,0,1,10.76-2.064,25.269,25.269,0,0,1,10.336,2.347c14.768,6.523,19.879,16.4,21.607,21.709,1.857,5.682,1.662,11.318-.524,15.091A10.245,10.245,0,0,1,131.373,87.869ZM42.132,69.92c0.336,0.7.72,1.493,1.123,2.306,5.972,12.213,3.4,19.738,1.13,26.382-1.957,5.723-3.8,11.123-.276,19.24,8.776,20.242,22.112,21.816,25.986,21.816a13.5,13.5,0,0,0,6.294-1.412c3.853-2.078,5.125-6.806,2.966-11-2.038-3.954-4.243-8.164-6.416-12.327-1.372-2.616-2.731-5.212-4.028-7.713L50.666,70.881a3.431,3.431,0,0,0-2.723-1.654H47.869l-5.212.2a0.826,0.826,0,0,0-.6.175A0.5,0.5,0,0,0,42.132,69.92Zm5.945-12.078a5.739,5.739,0,0,1-2.939-.767l-7.693-4.66,5.851,14.3,3.954-.148-0.41-1.52a7.953,7.953,0,0,1,1.116-6.106l0.827-1.143A6.225,6.225,0,0,1,48.077,57.842Zm85.051,11.977c-1.594-4.882-6.328-13.981-20.141-20.081a22.62,22.62,0,0,0-9.247-2.118,33.58,33.58,0,0,0-9.98,1.95c-1.749.531-3.524,1.069-5.4,1.473a28.23,28.23,0,0,1-6.005.686c-4.728,0-9.624-1.372-14.97-4.183-0.807-.424-1.587-0.834-2.273-1.184a0.728,0.728,0,0,0-.289-0.094,0.69,0.69,0,0,0-.222.6l-0.35,5.205a3.426,3.426,0,0,0,1.567,2.851L101.594,74.2c6.4,3.564,13.821,7.673,20.162,11.177a9.176,9.176,0,0,0,4.4,1.177,7.61,7.61,0,0,0,6.678-3.82C134.224,80.323,135.031,75.663,133.128,69.819Zm-8.5,12.077a10.973,10.973,0,0,1-4.174-.954c-7.716-3.226-21.309-11.83-22.285-12.545-4.19-3.075-5.492-7.667-3.318-11.7a12.036,12.036,0,0,1,10.534-5.806,15,15,0,0,1,6.683,1.651c13.247,6.563,19.711,18.036,18.1,24.9A5.436,5.436,0,0,1,124.627,81.9ZM110.873,54.952a12.342,12.342,0,0,0-5.489-1.371,9.415,9.415,0,0,0-8.166,4.393c-1.819,3.376.119,6.477,2.54,8.254,0.913,0.668,14.367,9.153,21.732,12.233a8.356,8.356,0,0,0,3.137.745,2.73,2.73,0,0,0,2.924-2.374C128.719,71.845,123.451,61.184,110.873,54.952ZM51.8,100.287a8.288,8.288,0,0,1,3.744-.915,9.579,9.579,0,0,1,7.738,4.533c0.674,0.976,8.77,14.608,11.76,22.383,1.444,3.755.728,6.027-.127,7.272a6.238,6.238,0,0,1-5.38,2.42h0c-6.811,0-16.673-6.451-22.342-18.78C43.433,109.02,47.625,102.385,51.8,100.287Zm-2.164,15.789c5.767,12.54,15.266,17.214,19.9,17.214h0a3.749,3.749,0,0,0,3.162-1.253c0.692-1.007.632-2.706-.166-4.783-2.853-7.421-10.832-20.907-11.463-21.822a6.953,6.953,0,0,0-5.524-3.37,5.631,5.631,0,0,0-2.537.629C49.889,104.258,46.659,109.6,49.639,116.076ZM12.387,210.842a3.324,3.324,0,0,1,.895-0.121c3.766,0,7.149,5.992,8.7,11.567,1.809,6.51,1.6,13.665-2.307,14.755a3.626,3.626,0,0,1-.894.121c-2.2,0-4.264-2.058-5.918-4.876-3.2,1.184-8.884,3.3-12.865,4.768v-2.871c3.759-1.392,8.635-3.2,11.628-4.3a30.816,30.816,0,0,1-1.54-4.284,30.43,30.43,0,0,1-.894-4.472c-2.414.464-5.925,1.13-9.193,1.755v-2.737c3.268-.626,6.7-1.278,8.991-1.715C8.944,214.608,9.933,211.521,12.387,210.842Zm0.289,14.028c1.722,6.181,4.7,9.6,6.106,9.6a0.754,0.754,0,0,0,.175-0.027c1.332-.37,2.193-5.125.431-11.439-1.715-6.181-4.7-9.6-6.106-9.6a0.7,0.7,0,0,0-.168.02C11.775,213.8,10.922,218.556,12.677,224.87ZM9.028,453.293a5.239,5.239,0,1,1-.945.085A5.236,5.236,0,0,1,9.028,453.293Zm-2.513,5.7a2.55,2.55,0,1,0,2.513-3.009,2.487,2.487,0,0,0-.462.042A2.554,2.554,0,0,0,6.515,458.992Zm57.769-67.947a104.315,104.315,0,0,1,15.649-3.4,9.431,9.431,0,0,1,1.385-.1,13.16,13.16,0,0,1,11.009,6.678l1.412,2.75c2.246,4.391.894,9.59-3.013,11.594l-5.387,2.757,3.853,7.526a7.418,7.418,0,0,1-3.221,9.986L33.578,455.679l8.884,4.815,53.686-9.8a6.976,6.976,0,0,1,1.271-.114,9.832,9.832,0,0,1,6.382,2.4l3.84,3.651a3.06,3.06,0,0,1-1.667,5.595L0,481.577V478.84l105.488-19.26a1.329,1.329,0,0,0,.794-0.323,1.679,1.679,0,0,0-.5-0.672l-3.84-3.659a7.174,7.174,0,0,0-4.526-1.654,4.635,4.635,0,0,0-.787.067L0,470.979v-2.724l38.238-6.987L13.759,448,0,455.047v-3.019L89.5,406.17c2.589-1.332,3.416-4.9,1.849-7.969l-1.412-2.758a10.442,10.442,0,0,0-8.615-5.211,6.885,6.885,0,0,0-1,.067,103.909,103.909,0,0,0-15.239,3.315C61.09,394.865,54.856,398.08,51.5,399.8,29.092,411.355,11.843,420.219,0,426.278v-3.027c11.8-6.032,28.622-14.68,50.269-25.837C53.692,395.652,60.068,392.363,64.284,391.045Zm-47.62,55.468,5.205,2.818,56.335-28.869a1.346,1.346,0,0,1,1.812.582v0a1.343,1.343,0,0,1-.582,1.809l-54.7,28.028,5.979,3.242,54.035-27.687A4.724,4.724,0,0,0,86.8,420.07l-3.853-7.518Zm1.7,181.145L18,629.467A8.757,8.757,0,0,1,7.68,636.286L0,634.719v-2.744l8.218,1.675a6.053,6.053,0,0,0,7.142-4.721l0.37-1.81a6.063,6.063,0,0,0-4.721-7.141L0,617.731v-2.75l11.547,2.361A8.762,8.762,0,0,1,18.366,627.658Zm-7.639,161.87,1.224,0.149a7.576,7.576,0,0,1,5.158,3.456L24.956,807H21.863l-7.095-12.535a5.024,5.024,0,0,0-3.154-2.119l-1.224-.154a0.3,0.3,0,0,0-.3.4l5.9,14.4H13.08L7.6,793.61a3.038,3.038,0,0,1,.242-3.059A3.036,3.036,0,0,1,10.727,789.528Zm40.52-88.689,28.765-24.718-6.659-7.75a9.423,9.423,0,0,1,1.006-13.288l20.358-17.5A9.423,9.423,0,0,1,108,638.594l6.659,7.749L144.509,620.7a7.4,7.4,0,0,1,10.441.79l49.95,58.126a7.4,7.4,0,0,1-.791,10.44L110.846,770.2a7.4,7.4,0,0,1-10.439-.79l-49.95-58.127A7.412,7.412,0,0,1,51.246,700.839Zm54.717-60.492a6.732,6.732,0,0,0-9.494-.719l-20.358,17.5a6.734,6.734,0,0,0-.719,9.5l6.66,7.749,30.57-26.27Zm96.393,47.666a4.713,4.713,0,0,0,.5-6.646l-5.641-6.566a16.965,16.965,0,0,0-.055,17.674Zm-99.909,79.639a4.713,4.713,0,0,0,6.646.5l5.18-4.452a16.967,16.967,0,0,0-17.463-2.613Zm-7.478-8.7a19.662,19.662,0,0,1,21.373,2.976l78.752-67.674a19.657,19.657,0,0,1,.284-21.59l-22.2-25.835-41.622,35.766,2.083,2.424a4.043,4.043,0,0,1-.43,5.694l-12.147,10.438a4.037,4.037,0,0,1-5.694-.43l-2.083-2.424L72.768,733.114Zm30.8-78.965a1.347,1.347,0,0,0-1.025-.47,1.321,1.321,0,0,0-.875.324l-12.147,10.439a1.348,1.348,0,0,0-.143,1.9l5.831,6.786a1.352,1.352,0,0,0,1.024.47,1.331,1.331,0,0,0,.877-0.326l12.147-10.438a1.349,1.349,0,0,0,.143-1.9ZM52.5,709.526l18.517,21.547,40.519-34.818-2-2.322a4.04,4.04,0,0,1,.431-5.7L122.115,677.8a4.04,4.04,0,0,1,5.694.432l2,2.323,41.622-35.767L152.91,623.24a4.715,4.715,0,0,0-6.648-.5L53,702.879A4.719,4.719,0,0,0,52.5,709.526ZM247.128,601a4.526,4.526,0,0,1,.926-0.315c0.321-3.648,1.081-12.286,1.466-16.725-3.686-.989-6.387-2.785-6.376-5.335,0.018-4.014,6.795-6.115,13.48-6.115h0.145a25.806,25.806,0,0,1,9.15,1.548c2.858,1.142,4.428,2.806,4.42,4.686-0.011,2.541-2.733,4.314-6.423,5.273,0.342,4.387,1.042,13.125,1.334,16.75a4.524,4.524,0,0,1,.907.315c4.331,2.172,7.173,5.672,7.8,9.6a2.667,2.667,0,0,1-1.242,2.587,31.612,31.612,0,0,1-14.724,4l-0.044,15.889A1.345,1.345,0,0,1,256.6,634.5h0a1.345,1.345,0,0,1-1.341-1.349l0.044-15.889a31.66,31.66,0,0,1-14.831-4.136,2.665,2.665,0,0,1-1.22-2.6C239.907,606.608,242.78,603.133,247.128,601Zm20.521-22.268c0-.54-0.84-1.422-2.727-2.175a23.078,23.078,0,0,0-8.165-1.357h-0.133c-6.477,0-10.784,2.068-10.79,3.436-0.006,1.387,4.336,3.5,10.893,3.532h0.129C263.335,582.168,267.643,580.1,267.649,578.732Zm-16.99,23.041a1.04,1.04,0,0,0,.076.416c1.085,1.062,3.389,1.751,5.9,1.763H256.7c2.828,0,4.966-.857,5.859-1.722a1.068,1.068,0,0,0,.082-0.41c-0.227-2.821-1-12.388-1.377-17.273a30.942,30.942,0,0,1-4.4.311h-0.141a31.334,31.334,0,0,1-4.542-.348C251.744,589.451,250.908,598.939,250.659,601.773Zm5.926,12.848h0.149a29.312,29.312,0,0,0,14.546-3.629c-0.526-3.018-2.825-5.75-6.328-7.506l-0.02-.008a2.512,2.512,0,0,1-.433.611c-1.566,1.577-4.552,2.552-7.806,2.552h-0.074c-3.312-.015-6.24-0.985-7.831-2.6a2.494,2.494,0,0,1-.448-0.641l-0.028.01c-3.516,1.725-5.839,4.435-6.392,7.449A29.379,29.379,0,0,0,256.585,614.621Zm156.9,187.987A62,62,0,0,1,419.358,807H415.04c-0.982-.747-2-1.459-3.04-2.146C390.339,790.591,362.282,792.3,339.061,807h-4.768a82.563,82.563,0,0,1,25.8-12.092C379.223,789.8,398.18,792.528,413.48,802.608ZM363.722,653.813l54.4-57.087a5.483,5.483,0,0,1,7.743-.186l35.856,34.171,5.4-28.933a4.557,4.557,0,0,1,5.316-3.655l14.586,2.7a4.572,4.572,0,0,1,3.66,5.319l-8.261,44.291,19.109,18.21a4.893,4.893,0,0,1,1.362,2.856l1.482,18.291a4.343,4.343,0,0,1-1.085,3.068L456.363,742.1a5.437,5.437,0,0,1-3.832,1.7l-0.134,0a5.438,5.438,0,0,1-3.775-1.512l-84.713-80.732A5.484,5.484,0,0,1,363.722,653.813Zm108.226-53.045a1.907,1.907,0,0,0-.344-0.032,1.872,1.872,0,0,0-1.838,1.534l-11.553,61.943a1.877,1.877,0,0,0,1.5,2.183l1.358,0.252c0.989-5.329,2.639-14.168,4.5-24.157,2.565-13.74,5.531-29.622,7.728-41.471Zm-7.385,79.7a4.972,4.972,0,0,1,2.529,1.33l6.052-10.176-13.258-2.455,1.927,11.6A4.958,4.958,0,0,1,464.563,680.465Zm-2.291,3.06,0.619,3.723a0.455,0.455,0,0,0,.861.163l1.9-3.2a2.608,2.608,0,0,0-1.583-1.1A2.523,2.523,0,0,0,462.272,683.525Zm13.679-82.014c-2.2,11.849-5.163,27.733-7.729,41.473-1.865,9.988-3.515,18.826-4.5,24.154l6.58,1.218c0.96-5.166,2.539-13.623,4.333-23.231,2.6-13.947,5.654-30.279,7.9-42.4Zm12.087,4.144a1.877,1.877,0,0,0-1.5-2.183l-1.357-.252c-2.247,12.117-5.3,28.451-7.9,42.4-1.793,9.605-3.373,18.062-4.332,23.227L474.3,669.1a1.876,1.876,0,0,0,2.185-1.5Zm13.3,85.35a1.714,1.714,0,0,0,.352-1l-1.481-18.291a2.285,2.285,0,0,0-.537-1.124l-1.42-1.353-8.951,9.393a2.783,2.783,0,0,0,.094,3.937l10.471,9.978Zm-135.577-31.4,84.713,80.731a2.857,2.857,0,0,0,1.988.769,2.766,2.766,0,0,0,1.95-.863l43.6-45.748-10.47-9.977a5.475,5.475,0,0,1-.186-7.742l8.95-9.393-14.474-13.794-2.7,14.5a4.556,4.556,0,0,1-2.77,3.386l-10.3,17.311c-1.109,1.864-2.26,2.25-3.023,2.25A2.263,2.263,0,0,1,462.63,691c-0.711-.134-1.966-0.742-2.392-3.31l-3.291-19.8a4.562,4.562,0,0,1-1.379-4.164l5.569-29.855-37.124-35.379a2.79,2.79,0,0,0-3.94.093l-54.4,57.087A2.791,2.791,0,0,0,365.765,659.608Zm18.757-16.5a5.472,5.472,0,0,1,7.741-.186L407.882,657.8a5.484,5.484,0,0,1,.187,7.742l-9.3,9.761a5.476,5.476,0,0,1-7.742.186l-15.619-14.884a5.482,5.482,0,0,1-.186-7.742Zm-7.261,15.555,15.619,14.885a2.786,2.786,0,0,0,3.939-.1l9.3-9.761a2.79,2.79,0,0,0-.095-3.939l-15.619-14.884a2.783,2.783,0,0,0-3.938.1l-9.3,9.761A2.788,2.788,0,0,0,377.261,658.659Zm69.468-24.152a1.345,1.345,0,0,1,1.948,1.856L404.194,683.04a1.345,1.345,0,1,1-1.948-1.856Zm-3.159,23.115a1.345,1.345,0,0,1,1.948,1.856l-31.435,32.985a1.345,1.345,0,0,1-1.948-1.855Zm4.152,15.446a1.345,1.345,0,1,1,1.948,1.856l-25.7,26.964a1.345,1.345,0,1,1-1.948-1.856Zm4.629,14.915a1.345,1.345,0,0,1,1.948,1.856L433.847,711.3a1.345,1.345,0,0,1-1.948-1.855Zm9.106,9.667a1.345,1.345,0,0,1,1.948,1.856l-19.958,20.942a1.345,1.345,0,1,1-1.948-1.856Zm-47.14-45.007a1.345,1.345,0,0,1-1.948-1.855L436.853,625.1a1.345,1.345,0,0,1,1.948,1.856Zm-8.971-8.548a1.345,1.345,0,1,1-1.947-1.856l24.484-25.692a1.345,1.345,0,0,1,1.948,1.855ZM508.309,445.75a12.731,12.731,0,0,1-5,1.293A4.027,4.027,0,0,1,500,445.69c-2.561-3.142,1.4-9.108,6.637-13.378,3.9-3.184,8.17-5.162,11.13-5.162a4.027,4.027,0,0,1,3.31,1.354c1.611,1.976.639,5.07-1.606,8.157,3.055,3.173,9.146,9.473,11.667,12.083a4.509,4.509,0,0,1,.9-0.333c4.726-1.075,9.142-.178,12.122,2.461a2.671,2.671,0,0,1,.684,2.787,31.6,31.6,0,0,1-8.82,12.454L546.08,478.4a1.345,1.345,0,1,1-2.081,1.7l-10.052-12.288a31.671,31.671,0,0,1-14.09,6.218,2.269,2.269,0,0,1-.34.025,2.68,2.68,0,0,1-2.253-1.255c-1.985-3.451-1.973-7.959.029-12.369a4.5,4.5,0,0,1,.516-0.832l-0.066-.1C515.641,456.442,510.8,449.38,508.309,445.75ZM518.993,430.2a1.718,1.718,0,0,0-1.226-.364c-2.334,0-6.035,1.788-9.43,4.556-5.082,4.144-7.128,8.519-6.252,9.594a1.721,1.721,0,0,0,1.225.363c2.334,0,6.036-1.789,9.431-4.557C517.822,435.652,519.868,431.278,518.993,430.2Zm0.545,41.159a31.024,31.024,0,0,0,22.755-18.553c-2.323-2-5.837-2.645-9.655-1.776l-0.021.007a2.478,2.478,0,0,1,.054.747c-0.209,2.229-1.919,4.9-4.464,6.976a11.972,11.972,0,0,1-7.091,3,6,6,0,0,1-.606-0.031,2.492,2.492,0,0,1-.753-0.211c0,0.008-.012.02-0.015,0.027C518.123,465.116,518.051,468.685,519.538,471.363Zm0.424-13.374,0.558,0.815a1.024,1.024,0,0,0,.313.26c1.163,0.092,3.322-.466,5.674-2.385,2.217-1.808,3.34-3.848,3.48-5.093a1.043,1.043,0,0,0-.2-0.367l-0.362-.374c-2.323-2.4-8.462-8.753-11.675-12.09a31.6,31.6,0,0,1-7.042,5.742C513.255,448.2,517.912,455,519.962,457.989Zm40.768,300a2.753,2.753,0,0,1,2.3-1.237,2.8,2.8,0,0,1,1.527.457l18.1,12,22,0.626a12.969,12.969,0,0,1,1.076-5.03,55.754,55.754,0,0,1-12.192-41.628l-19.8-13.121a4.173,4.173,0,0,1-1.177-5.789l2.831-4.271a4.181,4.181,0,0,1,5.79-1.177L626.8,729.044a4.174,4.174,0,0,1,1.177,5.79l-2.831,4.27a4.181,4.181,0,0,1-5.79,1.177l-17.875-11.843a42.638,42.638,0,0,0,10.7,29.739,12.979,12.979,0,0,1,18.38,12.811c18.366,6.966,38.77,1.049,49.025-14.432,9.382-14.149,8.218-33.108-2.838-47.311a15.071,15.071,0,0,1-11.735-8.681l-9.825,2.79,0.04,0.135a4.005,4.005,0,0,1-2.75,4.936l-25.9,7.357a4.014,4.014,0,0,1-4.936-2.751l-2.057-7.249-6.113,1.735a4.148,4.148,0,0,1-3.175-.37,4.141,4.141,0,0,1-1.984-2.508l-3.16-11.13a4.175,4.175,0,0,1,2.878-5.158l6.114-1.735-2.059-7.25a3.991,3.991,0,0,1,2.751-4.929l25.9-7.357a3.978,3.978,0,0,1,4.93,2.75l0.041,0.142,72.677-20.646a4.189,4.189,0,0,1,5.158,2.878l1.466,5.165,6.341-1.8a4.169,4.169,0,0,1,5.158,2.871l1.984,6.994a4.165,4.165,0,0,1-2.871,5.158l-6.349,1.8,1.466,5.158a4.175,4.175,0,0,1-2.871,5.158l-34.076,9.678c0.014,0.148.034,0.3,0.048,0.444,14.041,18.89,14.485,45.1,1.055,65.353a58.223,58.223,0,0,1-31.567,23.625,55.972,55.972,0,0,1-16.187,2.408,53.838,53.838,0,0,1-21.163-4.311,12.888,12.888,0,0,1-3.141,1.957L632,801.9l7.694,5.1h-4.862l-71.756-47.546-0.1.02-8.548,12.9a0.084,0.084,0,0,0,.021.1L606.548,807h-4.869l-48.722-32.287a2.764,2.764,0,0,1-.774-3.826Zm60.116-19.953a1.515,1.515,0,0,0,2.057-.417l2.831-4.27a1.475,1.475,0,0,0-.417-2.058L579.7,701.061a1.48,1.48,0,0,0-2.058.417l-2.831,4.271a1.452,1.452,0,0,0-.222,1.115,1.506,1.506,0,0,0,.639.949Zm-21.937-11.3-2.819-1.869a53.031,53.031,0,0,0,11.076,37.424,13.181,13.181,0,0,1,2.671-2.7A45.154,45.154,0,0,1,598.909,726.73Zm67.646-30.013a12.455,12.455,0,1,0,1.823-9.362A12.355,12.355,0,0,0,666.555,696.717Zm-57.787-5.777a1.486,1.486,0,0,0-.895.7,1.507,1.507,0,0,0-.128,1.13l3.161,11.137a1.469,1.469,0,0,0,.706.894,1.5,1.5,0,0,0,1.129.128l6.114-1.735-3.975-14Zm34.31-20.377a1.3,1.3,0,0,0-1.251-.948,1.253,1.253,0,0,0-.356.054l-25.9,7.35a1.309,1.309,0,0,0-.9,1.614l9.563,33.659a1.335,1.335,0,0,0,1.614.9l25.891-7.357a1.306,1.306,0,0,0,.9-1.608ZM734.887,668a1.5,1.5,0,0,0,.888-0.706,1.473,1.473,0,0,0,.135-1.13l-1.984-6.987a1.491,1.491,0,0,0-1.836-1.029l-6.348,1.8,2.8,9.852Zm-7.759,12.118a1.481,1.481,0,0,0,1.021-1.836l-7.2-25.339a1.487,1.487,0,0,0-1.835-1.029l-72.677,20.639,8.009,28.211,9.664-2.743c-0.068-.256-0.141-0.511-0.2-0.774a15.145,15.145,0,0,1,29.308-7.5ZM647.275,781.593a54.662,54.662,0,0,0,45.38-24.9c12.152-18.332,12.394-41.763.955-59.47a15.131,15.131,0,0,1-13.457,12.086c10.565,14.9,11.318,34.176,1.675,48.729-7.889,11.91-21.379,18.527-35.609,18.534a46.7,46.7,0,0,1-16.147-2.9,13,13,0,0,1-1.621,3.47c-0.155.229-.316,0.458-0.484,0.679A51.451,51.451,0,0,0,647.275,781.593Zm-21.063-5.938a10.287,10.287,0,1,0-8.6,4.607A10.31,10.31,0,0,0,626.212,775.655Zm1.54,23.43-7.5-16.409a12.791,12.791,0,0,1-2.636.276,12.964,12.964,0,0,1-12.7-10.418l-18.01-.511ZM612.669,766.68a5.953,5.953,0,1,1,1.674,8.249A5.939,5.939,0,0,1,612.669,766.68Zm3.16,6.007a3.262,3.262,0,1,0-.918-4.521A3.247,3.247,0,0,0,615.829,772.687Zm62.941-84.75a6.3,6.3,0,1,1-5.255,2.82A6.273,6.273,0,0,1,678.77,687.937Zm-3.543,7.018a3.612,3.612,0,1,0,.53-2.712A3.587,3.587,0,0,0,675.227,694.955Zm-80.6-106.832c-13.481-11.088-13.749-19.564-12.709-23.629a11.215,11.215,0,0,1,8.967-8.191c5.656-1.072,9.035,1.263,12.018,3.322,2.626,1.814,4.938,3.4,8.7,3.067l-1.789-5.323A19.678,19.678,0,0,1,622.2,532.451l36.625-12.305a25.765,25.765,0,0,1,32.659,16.233l0.739,2.2a25.787,25.787,0,0,1-16.234,32.657l-36.624,12.305a19.656,19.656,0,0,1-24.919-12.388l-1.967-5.853c-5.107.672-8.28-1.514-11.1-3.461-2.92-2.015-5.44-3.754-9.99-2.893a8.445,8.445,0,0,0-6.861,6.215c-1.5,5.864,2.8,13.476,11.812,20.884,4.532,3.728,6.877,8.085,6.969,12.952a18.987,18.987,0,0,1-5.5,13.189,1.345,1.345,0,1,1-1.786-2.012,16.47,16.47,0,0,0,4.591-11.127C600.539,595,598.524,591.328,594.627,588.123Zm80.5-19.437a23.1,23.1,0,0,0,14.54-29.251l-0.739-2.2A23.078,23.078,0,0,0,659.678,522.7L640.4,529.173l15.45,45.992ZM616.992,570.3a16.966,16.966,0,0,0,21.513,10.694l14.792-4.97L646,554.3l-4.306,1.447a5.688,5.688,0,0,1-3.861,5.9l-9.118,3.064a5.671,5.671,0,0,1-6.627-2.373L615.1,564.68Zm21.881-15.02a3.008,3.008,0,0,0-3.815-1.9l-9.12,3.063a3.014,3.014,0,1,0,1.92,5.714l9.118-3.064A3.012,3.012,0,0,0,638.873,555.277Zm-24.626,6.852,6.972-2.342a5.692,5.692,0,0,1,3.863-5.895l9.119-3.063a5.669,5.669,0,0,1,6.625,2.373l4.318-1.451-7.3-21.721L623.053,535a16.988,16.988,0,0,0-10.693,21.512Zm48.294-35.256a19.136,19.136,0,0,1,22.279,12.361,1.345,1.345,0,1,1-2.539.888A16.444,16.444,0,0,0,663.134,529.5,1.345,1.345,0,1,1,662.541,526.873ZM688.066,312.3l20.815-19.725a4.227,4.227,0,0,1,5.969.162l2.83,2.985,8.454-8.011a8.392,8.392,0,0,1,11.546,12.183l-8.456,8.012,2.83,2.985a4.228,4.228,0,0,1-.161,5.969l-20.8,19.711a3.485,3.485,0,0,1-.592,2.015l-49.287,77.7c0.134,0.121.268,0.241,0.392,0.372a7.182,7.182,0,0,1-7.971,11.579l-3.7,5.839a16.582,16.582,0,0,1-4.391,4.383L633.454,446.1a9.128,9.128,0,0,1-4.268,1.7,2.2,2.2,0,0,1-1.627-.634c-1.46-1.462-.082-4.063,1.082-5.892L692.369,340.82l-9.542-10.07L579.085,388.984a9.256,9.256,0,0,1-4.168,1.478,2.215,2.215,0,0,1-2.068-1.144c-0.62-1.2-.086-2.918,1.68-5.4l8.286-11.654a16.582,16.582,0,0,1,4.611-4.149l98.611-55.346A3.474,3.474,0,0,1,688.066,312.3Zm47.763-14.358a5.7,5.7,0,1,0-7.844-8.279l-8.455,8.012,7.844,8.278ZM653.118,424.7a4.5,4.5,0,0,0,6.36.171,4.505,4.505,0,0,0,.172-6.361A4.5,4.5,0,0,0,653.118,424.7Zm-22.207,18.026a13.318,13.318,0,0,0-.991,1.809,0.212,0.212,0,0,0,.253.3,12.961,12.961,0,0,0,1.843-1l12.083-7.646a13.905,13.905,0,0,0,3.559-3.551l3.728-5.878c-0.073-.071-0.15-0.135-0.22-0.208a7.177,7.177,0,0,1,7.748-11.663l49.313-77.741a0.27,0.27,0,1,0-.245-0.464l-5.564-.191a7.9,7.9,0,0,0-6.183,3.26Zm62.945-104.244,0.109-.172a10.651,10.651,0,0,1,8.545-4.507l5.566,0.192a3.766,3.766,0,0,1,1.467.338l20.5-19.424a1.533,1.533,0,0,0,.059-2.166l-17.2-18.154a1.534,1.534,0,0,0-2.165-.059l-20.493,19.419a3.718,3.718,0,0,1,.254,1.489L690.385,321a10.623,10.623,0,0,1-4.959,8.29l-0.179.1ZM585.007,373.821l-8.286,11.655a14.873,14.873,0,0,0-.938,1.475,0.329,0.329,0,0,0,.449.453,14.815,14.815,0,0,0,1.535-.765l106.341-59.692a7.921,7.921,0,0,0,3.587-6l0.108-5.567a1.163,1.163,0,0,0-.053-0.419,1.183,1.183,0,0,0-.4.151l-98.61,55.345A13.908,13.908,0,0,0,585.007,373.821Zm118.944-67.928a5.148,5.148,0,1,1-3.541,1.411A5.169,5.169,0,0,1,703.951,305.893Zm-1.783,6.84a2.458,2.458,0,1,0,.093-3.476A2.462,2.462,0,0,0,702.168,312.733Zm11.018,2.906a5.147,5.147,0,0,1,5.147,5.286,5.149,5.149,0,0,1-5.146,5.01,5.17,5.17,0,0,1-3.737-1.607A5.147,5.147,0,0,1,713.186,315.639Zm-1.783,6.839a2.456,2.456,0,1,0-.674-1.758A2.436,2.436,0,0,0,711.4,322.478ZM468.905,205.67a2.92,2.92,0,0,1,2.392-1.791l84.22-14.65a6.891,6.891,0,0,1,5.7,1.883l59.146,62.18a2.7,2.7,0,0,1-1.461,4.758l-9.607,2.1-6.551,20.059a4.79,4.79,0,0,1,.012,7.919l0.391,13.255a1.345,1.345,0,0,1-2.688.08l-0.36-12.192-5.072,15.53a1.345,1.345,0,1,1-2.557-.835l5.06-15.5-7.66,10.746a1.345,1.345,0,0,1-2.191-1.562l8.079-11.33a4.8,4.8,0,0,1,4.287-6.947c0.046,0,.091.009,0.137,0.011l6.065-18.572-20.652,4.512L582.113,275.7a3.455,3.455,0,0,1-.159,1.094c-0.772,2.362-3.894,3.51-9.547,3.51-9.427,0-24.719-3.156-40.907-8.443-18.911-6.177-46.137-18.144-43.637-25.8a3.429,3.429,0,0,1,.518-0.985c0.394-1.24,1.879-5.908,3.425-10.768l-22.189-25.739A2.921,2.921,0,0,1,468.905,205.67Zm133.017,77.549a2.108,2.108,0,1,0,.124,1.609A2.092,2.092,0,0,0,601.922,283.219ZM580.5,272.057c2.139-6.381,6.761-20.168,6.893-20.574,0.31-.95-1.521-4.106-10.672-9.262-8-4.51-19.1-9.177-31.244-13.143s-23.855-6.748-32.979-7.833c-10.43-1.241-13.771.228-14.081,1.177-0.135.414-4.57,14.357-6.586,20.695a23.076,23.076,0,0,1,5.579-.561c9.428,0,24.72,3.157,40.907,8.443,12.306,4.02,23.574,8.764,31.729,13.358C575.165,267.243,578.636,269.8,580.5,272.057ZM490.42,246.9c-0.31.949,1.522,4.106,10.672,9.262,8,4.51,19.1,9.178,31.244,13.144,15.694,5.126,31.049,8.31,40.071,8.31,6.268,0,6.934-1.486,6.989-1.655,0.31-.949-1.521-4.1-10.673-9.261-8-4.51-19.1-9.178-31.243-13.144-15.7-5.126-31.049-8.311-40.072-8.311C491.141,245.246,490.475,246.732,490.42,246.9Zm-18.766-40.083,21.109,24.487c1.593-5,3.017-9.478,3.1-9.718,1.064-3.257,6.61-4.241,16.955-3.013,9.295,1.1,21.191,3.927,33.5,7.946,18.911,6.177,46.138,18.144,43.639,25.8-0.08.242-1.641,4.9-3.362,10.037l31.739-6.934a0.181,0.181,0,0,0,.085-0.275l-59.146-62.181a4.3,4.3,0,0,0-3.287-1.086l-84.221,14.65A0.193,0.193,0,0,0,471.654,206.818Zm291.22,513.428a8.756,8.756,0,0,1,10.391-6.7l1.808,0.391a8.753,8.753,0,0,1,6.7,10.39l-9.27,42.936a6.059,6.059,0,0,1-7.193,4.64l-2.207-.477a6.053,6.053,0,0,1-4.639-7.193l6.341-29.37a1.345,1.345,0,1,1,2.629.567L761.1,764.8a3.364,3.364,0,0,0,2.577,4l2.207,0.476a3.363,3.363,0,0,0,4-2.577l9.269-42.936a6.059,6.059,0,0,0-4.638-7.194l-1.808-.39a6.061,6.061,0,0,0-7.194,4.639l-10.39,48.129a8.741,8.741,0,0,0,6.7,10.39l1.035,0.224a8.751,8.751,0,0,0,10.39-6.7l7.616-35.27a1.345,1.345,0,0,1,2.629.567l-7.615,35.27a11.425,11.425,0,0,1-13.588,8.762l-1.035-.224a11.431,11.431,0,0,1-8.762-13.587Z"/>
</svg>
