<svg xmlns="http://www.w3.org/2000/svg" width="507.716" height="512" viewBox="0 0 507.716 512">
  <defs>
    <style>
      .cls-1 {
        fill: #fff;
        fill-rule: evenodd;
      }
    </style>
  </defs>
  <path id="Kraski.svg" class="cls-1" d="M1180.83,838.323c-17.77,16.942-42.68,36.358-71.57,55.868,30.17,5.487,55.24,19.149,73.4,40.22,21.08,24.451,31.93,57.29,31.39,94.969-0.37,25.91-6.37,53.23-17.36,79.02a237.576,237.576,0,0,1-48.74,72.98,240.949,240.949,0,0,1-78.81,53.75c-32.65,13.85-68.65,20.87-107,20.87A256.154,256.154,0,0,1,773.9,1172.95c-49.267-53.73-72.9-124.07-66.534-198.048,5.287-61.429,34.285-119.361,81.65-163.123C836.317,768.071,895.942,744,956.9,744h0.47c17.271,0.036,31.416,8.021,37.861,21.358,6.148,12.725,4,28.2-5.6,40.375-12.816,16.261-16.647,35.014-10.838,51.431,7.832-4.817,15.837-9.6,23.921-14.265,46.78-27.03,92.95-48.827,130.02-61.377,43.87-14.854,68.24-14.955,76.68-.321C1217,794.34,1207.92,812.492,1180.83,838.323ZM977.24,774.065c-3.081-6.377-10.331-10.045-19.89-10.065H956.9c-116.527,0-219.538,95.38-229.629,212.618-5.875,68.332,15.911,133.252,61.348,182.812A236.138,236.138,0,0,0,962.137,1236c141.423,0,230.5-107.4,231.933-206.91,0.79-55.266-28.04-115.174-111.32-117.564-0.06,0-.12-0.011-0.18-0.014-9.74,6.091-19.76,12.13-29.89,17.988-19.98,11.54-39.96,22.189-59.391,31.652-34.675,16.907-66.692,29.5-91.2,35.937a49.87,49.87,0,0,1-23.833,32.7c-11.381,6.58-35.171,8.25-56.352,8.25-17.456,0-33.139-1.13-38.661-1.58a10,10,0,0,1-8.221-14.25c5.253-11.09,32.512-67.018,53.272-79.019a49.66,49.66,0,0,1,41.06-4.023c17.852-17.961,44.683-39.3,76.457-60.761l0.071-.048c5.087-3.441,10.352-6.91,15.709-10.364-10.175-23.7-5.658-51.8,12.351-74.648C978.842,787.135,980.073,779.927,977.24,774.065ZM976.983,946.8a130.389,130.389,0,0,0-26.946-47.063c-25.652,17.719-47.437,35.039-62.915,49.988a49.9,49.9,0,0,1,15.081,26.6C922.878,970.4,948.768,960.193,976.983,946.8Zm-97.744,24.685a29.958,29.958,0,0,0-40.947-10.975c-9.46,5.468-26.326,33.234-38.591,56.938,26.654,1.22,59.117.48,68.567-4.98A29.987,29.987,0,0,0,879.239,971.487ZM1133.99,802.256c-34.96,12.387-78.03,32.972-121.28,57.964-11.15,6.442-22.167,13.093-32.743,19.768q-6.708,4.228-13.219,8.507a149.825,149.825,0,0,1,28.339,49.436c15.663-7.9,31.623-16.526,47.6-25.752,11.58-6.7,23.04-13.63,34.05-20.607,34.82-22.063,65.61-44.916,86.7-64.349,25.25-23.272,28.14-33.625,28.45-35.952C1188.22,789.511,1172.47,788.621,1133.99,802.256Zm-251.8,83.584a40,40,0,1,1,39.969-40A40.03,40.03,0,0,1,882.189,885.84Zm0-60a20,20,0,1,0,19.984,20A20.015,20.015,0,0,0,882.189,825.84Zm-49.961,248.71a40,40,0,1,1-39.969,40A40.027,40.027,0,0,1,832.228,1074.55Zm0,60a20,20,0,1,0-19.985-20A20.014,20.014,0,0,0,832.228,1134.55Zm99.922,0a40,40,0,1,1-39.969,40A40.027,40.027,0,0,1,932.15,1134.55Zm0,60a20,20,0,1,0-19.984-20A20.014,20.014,0,0,0,932.15,1194.55Zm11.143-100.45c-19.225-3.86-35.861-12.96-48.109-26.31a9.993,9.993,0,1,1,14.719-13.52c21.159,23.05,55.843,25.63,80.831,17.95,23.376-7.18,38.966-22.49,41.7-40.94a9.992,9.992,0,1,1,19.77,2.92c-3.89,26.28-24.67,47.64-55.6,57.14a110.921,110.921,0,0,1-32.387,4.8A106.013,106.013,0,0,1,943.293,1094.1Zm108.767,20.45a40,40,0,1,1-39.97,40A40.027,40.027,0,0,1,1052.06,1114.55Zm0,60a20,20,0,1,0-19.99-20A20.009,20.009,0,0,0,1052.06,1174.55Zm79.94-160a40,40,0,1,1-39.97,40A40.025,40.025,0,0,1,1132,1014.55Zm0,60a20,20,0,1,0-19.99-20A20.016,20.016,0,0,0,1132,1074.55ZM1042.06,990a10,10,0,1,1,10-10A10,10,0,0,1,1042.06,990Z" transform="translate(-706.344 -744)"/>
</svg>
