<svg xmlns="http://www.w3.org/2000/svg" width="479.877" height="479.75" viewBox="0 0 479.877 479.75">
  <defs>
    <style>
      .cls-1 {
        fill: #fff;
        fill-rule: evenodd;
      }
    </style>
  </defs>
  <path id="Pedagog.svg" class="cls-1" d="M856.024,1159.97a8,8,0,0,1,0-16,24,24,0,0,1,23.994,24.01v16a24,24,0,0,1-23.994,24.01H792.038a24,24,0,0,1-23.994-24.01v-16a24,24,0,0,1,23.994-24.01,8,8,0,0,1,0,16,8.007,8.007,0,0,0-8,8.01v16a8,8,0,0,0,8,8h63.986a8,8,0,0,0,8-8v-16A8.007,8.007,0,0,0,856.024,1159.97ZM976,1199.99v-48.02a8,8,0,1,1,16,0v48.02A8,8,0,1,1,976,1199.99Zm31.994-16.01v-16a8,8,0,1,1,16,0v16A8,8,0,0,1,1007.99,1183.98Zm31.99,16.01v-48.02a8,8,0,1,1,16,0v48.02A8,8,0,1,1,1039.98,1199.99Zm39.99,0v-48.02a8,8,0,0,1,16,0v48.02A8,8,0,0,1,1079.97,1199.99Zm63.99-120.04a8,8,0,0,1,0,16h-24a16,16,0,0,1-15.99-16v-16.01a16,16,0,0,1,15.99-16.01h24a8.005,8.005,0,0,1,0,16.01h-24v16.01h24Zm-319.929-16.01v24.01a8,8,0,1,1-16,0v-24.01A8,8,0,1,1,824.031,1063.94Zm375.919-16.01v48.02a32.006,32.006,0,0,1-32,32.01H760.045a24,24,0,0,0-23.994,24.01v48.02a24,24,0,0,0,23.994,24H1111.97a8.005,8.005,0,0,1,0,16.01H760.045a40.055,40.055,0,0,1-39.991-40.01v-48.02a40.042,40.042,0,0,1,39.991-40.01H1167.95a16,16,0,0,0,16-16.01v-48.02a16,16,0,0,0-16-16h-53.78a40.208,40.208,0,0,1-11.12,6.85l-32.36,13.07a7.655,7.655,0,0,1,1.28,4.09v32.01a8,8,0,1,1-15.99,0V1057.8l-62.995,25.46a87.641,87.641,0,0,1-65.962,0l-110.069-44.49a39.6,39.6,0,0,1-11.118-6.84H791.78a7.759,7.759,0,0,0-7.74,7.74v24.27a8,8,0,1,1-16,0v-24.27a23.772,23.772,0,0,1,23.736-23.75H794.7a39.846,39.846,0,0,1-2.664-14.1V880.291L731.15,859.6a15.885,15.885,0,0,1,.5-30.408l223.34-68.191a17.03,17.03,0,0,1,10.021,0l223.336,68.222a15.885,15.885,0,0,1,.5,30.409l-116.88,39.646v70.071a23.993,23.993,0,1,1-15.99,0V904.686L965.51,935.4a17.093,17.093,0,0,1-11.013,0l-74.479-25.267v57.774a8,8,0,1,1-16,0V904.686l-55.988-18.967v116.1a23.751,23.751,0,0,0,14.907,22.11l110.073,44.48a71.717,71.717,0,0,0,53.98,0l110.066-44.48a23.934,23.934,0,0,0,8.2-5.52l0.31-.28a23.786,23.786,0,0,0,6.4-16.31V911.888a8,8,0,1,1,15.99,0v89.932a39.987,39.987,0,0,1-2.65,14.1h42.64A32.006,32.006,0,0,1,1199.95,1047.93Zm-135.97-48.012a8,8,0,1,0-8-8A8,8,0,0,0,1063.98,999.918ZM959.648,920.25a1.085,1.085,0,0,0,.7,0l80.979-27.474-85.122-45.863a8.006,8.006,0,0,1,7.584-14.1l98.258,52.94,121.66-41.28L960.336,776.307,736.324,844.5Z" transform="translate(-720.063 -760.25)"/>
</svg>
